<svg width="1920" height="1080" viewBox="0 0 1920 1080" xmlns="http://www.w3.org/2000/svg"><path d="M1414.8458508980827,546.9999999999999C1410.8458508980827,618.3751424732319,1427.7589050793804,742.4016374776716,1387.4552115439444,803.1254274196958C1347.1515180085084,863.8492173617201,1234.5730814812266,879.5771453314073,1173.023689685467,911.3427396521454C1111.4742978897073,943.1083339728834,1066.775949576531,1001.3874351385527,1018.1588607693868,993.7189933441243C969.5417719622425,986.0505515496959,935.3462176463595,887.5510550748695,881.321156842601,865.3320888855751C827.2960960388425,843.1131226962807,739.51464426889,893.3452028677203,694.0084959468361,860.405196208358C648.5023476247821,827.4651895489957,633.7729858750372,734.0530101346562,608.2842669102773,667.6920489294012C582.7955479455175,601.3310877241461,538.2618660894886,532.4223031664536,541.0761821582765,462.2394289768272C543.8904982270644,392.0565547872007,573.0767400377213,278.84844128633944,625.1701633230044,246.59480379164228C677.2635866082876,214.34116629694512,782.9581647379935,276.0548477166437,853.6367218699752,268.71760400864423C924.3152790019569,261.3803603006448,987.9094370883874,219.0813988204438,1049.241506114895,202.57134154364553C1110.5735751414024,186.06128426684725,1161.2601851241784,140.9400551750782,1221.62913602902,169.65726034785456C1281.9980869338615,198.37446552063093,1379.2524257324337,311.98411597161294,1411.4552115439442,374.87457258030383C1443.6579973554547,437.76502918899473,1418.8458508980827,475.62485752676787,1414.8458508980827,546.9999999999999C1410.8458508980827,618.3751424732319,1427.7589050793804,742.4016374776716,1387.4552115439444,803.1254274196958" fill="#363636cb"/></svg>